<svg width="32" height="34" viewBox="0 0 32 34" fill="none" xmlns="http://www.w3.org/2000/svg">
<path d="M13 27.9094H17V16.6529H22V13.583H17C17 11.5363 17 8.46638 20 8.46638V5.39642C13 5.39642 13 10.513 13 13.583H10V16.6529H13V27.9094Z" fill="white"/>
<path d="M20 5.39643V8.46638C17 8.46638 17 11.5363 17 13.583H22V16.6529H17V27.9094H13V16.6529H10V13.583H13C13 10.513 13 5.39643 20 5.39643ZM20 4.37311C12.83 4.37311 12.09 9.36691 12 12.5597H10C9.73478 12.5597 9.48043 12.6675 9.29289 12.8594C9.10536 13.0513 9 13.3116 9 13.583V16.6529C9 16.9243 9.10536 17.1846 9.29289 17.3765C9.48043 17.5684 9.73478 17.6763 10 17.6763H12V27.9094C12 28.1808 12.1054 28.4411 12.2929 28.633C12.4804 28.825 12.7348 28.9328 13 28.9328H17C17.2652 28.9328 17.5196 28.825 17.7071 28.633C17.8946 28.4411 18 28.1808 18 27.9094V17.6763H22C22.2652 17.6763 22.5196 17.5684 22.7071 17.3765C22.8946 17.1846 23 16.9243 23 16.6529V13.583C23 13.3116 22.8946 13.0513 22.7071 12.8594C22.5196 12.6675 22.2652 12.5597 22 12.5597H18C18.08 10.513 18.5 9.4897 20 9.4897C20.2652 9.4897 20.5196 9.38189 20.7071 9.18998C20.8946 8.99807 21 8.73779 21 8.46638V5.39643C21 5.12503 20.8946 4.86474 20.7071 4.67283C20.5196 4.48092 20.2652 4.37311 20 4.37311Z" fill="black"/>
</svg>
