<svg width="32" height="34" viewBox="0 0 32 34" fill="none" xmlns="http://www.w3.org/2000/svg">
<path d="M10.0003 6.41974L12.6803 11.8945L11.3103 14.6063C13.9903 20.0913 18.0103 21.4625 18.0103 21.4625L20.6903 20.0913L26.0003 22.7928V26.8861C14.0003 25.5558 7.24027 17.0623 6.00027 6.41974H10.0003ZM10.0003 5.39642H6.00027C5.86485 5.39827 5.7312 5.42824 5.60743 5.48453C5.48366 5.54082 5.37236 5.62225 5.28027 5.72389C5.18127 5.82283 5.10484 5.94293 5.05644 6.0756C5.00804 6.20827 4.98886 6.35024 5.00027 6.49137C6.45027 18.5768 14.2803 26.5791 25.9403 27.9094H26.0003C26.2352 27.907 26.4618 27.8201 26.6403 27.6638C26.7519 27.5687 26.8419 27.4499 26.904 27.3156C26.9662 27.1813 26.9991 27.0347 27.0003 26.8861V22.7928C27.003 22.6097 26.9545 22.4297 26.8606 22.2738C26.7667 22.1179 26.6313 21.9926 26.4703 21.9128L21.1103 19.1703C20.9805 19.1018 20.8363 19.0667 20.6903 19.068C20.5409 19.0654 20.3932 19.1006 20.2603 19.1703L18.0003 20.3778C15.5787 19.1125 13.6138 17.091 12.3903 14.6063L13.5103 12.3141C13.5727 12.178 13.6051 12.0295 13.6051 11.8791C13.6051 11.7288 13.5727 11.5803 13.5103 11.4442L10.8303 5.93878C10.7545 5.77868 10.6368 5.64322 10.4902 5.54748C10.3437 5.45173 10.1741 5.39944 10.0003 5.39642Z" fill="black"/>
</svg>
